<svg id="Layer_2" data-name="Layer 2" xmlns="http://www.w3.org/2000/svg" viewBox="0 0 313.35 99.45"><defs><style>.cls-1{fill:#fff;}</style></defs><title>vicuraa_logo_white</title><path class="cls-1" d="M381.53,868.07h10.32l3.24,13.08q1.08,4.5,2.16,9.36h.24q1.08-4.86,2.16-9.36l3.24-13.08h9.84l-9.48,30H391.37Z" transform="translate(-264.74 -829.69)"/><path class="cls-1" d="M416.33,859.19c0-3,2.4-5.15,5.76-5.15s5.76,2.16,5.76,5.15-2.4,5.16-5.76,5.16S416.33,862.19,416.33,859.19Zm.6,8.88h10.32v30H416.93Z" transform="translate(-264.74 -829.69)"/><path class="cls-1" d="M432.65,883.07c0-10,7.56-15.72,16.08-15.72a13.25,13.25,0,0,1,8.76,3.12l-4.8,6.6a5,5,0,0,0-3.36-1.44c-3.84,0-6.12,2.88-6.12,7.44s2.52,7.44,5.76,7.44a8.36,8.36,0,0,0,4.8-1.92l4,6.72a15.09,15.09,0,0,1-10,3.48C439.25,898.79,432.65,893,432.65,883.07Z" transform="translate(-264.74 -829.69)"/><path class="cls-1" d="M462.29,886.55V868.07h10.32v17.16c0,3.84,1,4.8,3,4.8s3-.72,4.32-2.64V868.07h10.32v30h-8.4l-.72-4h-.24c-2.4,2.88-5.16,4.68-9.24,4.68C465.05,898.79,462.29,894,462.29,886.55Z" transform="translate(-264.74 -829.69)"/><path class="cls-1" d="M497.21,868.07h8.4l.72,5.16h.24c2.22-4.08,5.58-5.88,8.52-5.88a9.09,9.09,0,0,1,3.72.6l-1.68,8.88a14.16,14.16,0,0,0-3.36-.48c-2.16,0-4.8,1.32-6.24,5v16.68H497.21Z" transform="translate(-264.74 -829.69)"/><path class="cls-1" d="M519.29,889.55c0-6.24,4.8-9.72,16.32-10.92-.24-2.16-1.56-3.11-4.2-3.11-2.16,0-4.44.83-7.56,2.51l-3.6-6.72a25.28,25.28,0,0,1,13.2-4c7.8,0,12.48,4.21,12.48,14v16.68h-8.4l-.72-2.88h-.24c-2.4,2.16-5,3.6-8.28,3.6C522.65,898.79,519.29,894.47,519.29,889.55Zm16.32-.72v-4.08c-4.92.72-6.48,2.28-6.48,4,0,1.38,1,2.16,2.76,2.16S534.53,890,535.61,888.83Z" transform="translate(-264.74 -829.69)"/><path class="cls-1" d="M551.45,889.55c0-6.24,4.8-9.72,16.32-10.92-.24-2.16-1.56-3.11-4.2-3.11-2.16,0-4.44.83-7.56,2.51l-3.6-6.72a25.28,25.28,0,0,1,13.2-4c7.8,0,12.48,4.21,12.48,14v16.68h-8.4l-.72-2.88h-.24c-2.4,2.16-5,3.6-8.28,3.6C554.81,898.79,551.45,894.47,551.45,889.55Zm16.32-.72v-4.08c-4.92.72-6.48,2.28-6.48,4,0,1.38,1,2.16,2.76,2.16S566.69,890,567.77,888.83Z" transform="translate(-264.74 -829.69)"/><path class="cls-1" d="M280.89,916.41a55.81,55.81,0,0,0,9.31-51,9,9,0,0,1,8.59-11.7,9.14,9.14,0,0,1,2.07.24,73.61,73.61,0,0,1,54.65,54.67,50,50,0,1,0-74.62,7.82Z" transform="translate(-264.74 -829.69)"/><path class="cls-1" d="M348.45,929.14q.09-1.73.09-3.48a64.72,64.72,0,0,0-49.75-63,64.83,64.83,0,0,1-16.91,66c6.15-5.4,18.64-9.09,33.05-9.09C329.72,919.62,342.49,923.51,348.45,929.14Z" transform="translate(-264.74 -829.69)"/></svg>